<svg id="Layer_1" data-name="Layer 1" xmlns="http://www.w3.org/2000/svg" viewBox="0 0 52 52"><defs><style>.cls-1{fill:#01af4d;}.cls-2{fill:#fff;}</style></defs><rect class="cls-1" x="7.97" y="7.97" width="36.06" height="36.06" rx="9.13"/><path class="cls-2" d="M27.11,26.41s-1.05.28-1.59.36L24,27a6.08,6.08,0,0,0-1.18.31,1.16,1.16,0,0,0-.67.53,3,3,0,0,0,0,3,1.54,1.54,0,0,0,.67.65,7.23,7.23,0,0,0,1.77.36q1.21.13,3.54.45h2.47c.43,0,.3-.52.3-.52a28.3,28.3,0,0,0-.61-4.52,11.46,11.46,0,0,0-1.54-3.78A8,8,0,0,0,26,20.85a8.55,8.55,0,0,0-4.28-1,10,10,0,0,0-1.44.1c-.48.07-1,.16-1.47.28a.19.19,0,0,0,.07-.14.53.53,0,0,0-.14-.33.47.47,0,0,1-.13-.32c0-.14.14-.27.42-.4a8.36,8.36,0,0,1,1.84-.35.34.34,0,0,1-.09-.21c0-.09,0-.16,0-.21-1.23,0-2.19,0-2.87-.08s-1-.22-1-.5c0-.11.14-.27.43-.48a5.64,5.64,0,0,1,1.21-.6,13.8,13.8,0,0,1,1.9-.51,12.6,12.6,0,0,1,2.49-.22,11.63,11.63,0,0,1,4.52.8,9.8,9.8,0,0,1,3.16,2.12,11,11,0,0,1,2.09,3A22.65,22.65,0,0,1,34,25.2a24.63,24.63,0,0,1,.73,3.28q.24,1.59.45,2.76c0,.14,0,.27,0,.41a3.54,3.54,0,0,1,0,.48,3.9,3.9,0,0,1-.36,1.73,3.5,3.5,0,0,1-1,1.23,4.77,4.77,0,0,1-1.47.76,6.17,6.17,0,0,1-1.8.25l-1.95,0a16.8,16.8,0,0,1-2.3-.21,11.47,11.47,0,0,0-1.57-.25,13.63,13.63,0,0,1-1.75-.3,8.8,8.8,0,0,1-1.73-.58,4.41,4.41,0,0,1-1.51-1.14,5.79,5.79,0,0,1-1.06-2,10.48,10.48,0,0,1-.39-3.11,4.56,4.56,0,0,1,.82-2.86,5.86,5.86,0,0,1,2-1.68,7.62,7.62,0,0,1,2.34-.79,12.6,12.6,0,0,1,2-.19,3.7,3.7,0,0,1,1.26.14c.21.09.31.18.31.27a.4.4,0,0,1,0,.17l-.11.21a.38.38,0,0,0-.13.27.3.3,0,0,0,.13.24h1.34a1.46,1.46,0,0,1,.79.36.73.73,0,0,1,.24.46.68.68,0,0,1-.31.55C28.65,25.78,27.11,26.41,27.11,26.41Zm-3.83,4.9h0Z"/></svg>